<svg width="793" height="214" viewBox="0 0 793 214" fill="none" xmlns="http://www.w3.org/2000/svg">
<rect x="542.9" y="29" width="23.2592" height="155.402" fill="currentColor"/>
<path fill-rule="evenodd" clip-rule="evenodd" d="M658.397 176.546C649.729 183.047 639.058 186.882 627.518 186.882C598.505 186.882 574.984 162.642 574.984 132.739C574.984 102.837 598.505 78.5967 627.518 78.5967C639.058 78.5967 649.729 82.4316 658.397 88.9323V80.2499H681.656V185.229H658.397V176.546ZM657.595 132.326C657.595 149.217 644.309 162.91 627.919 162.91C611.53 162.91 598.244 149.217 598.244 132.326C598.244 115.435 611.53 101.742 627.919 101.742C644.309 101.742 657.595 115.435 657.595 132.326Z" fill="currentColor"/>
<path fill-rule="evenodd" clip-rule="evenodd" d="M403.344 29H426.603V185.228H403.344V176.546C394.676 183.047 384.005 186.882 372.465 186.882C343.452 186.882 319.932 162.641 319.932 132.739C319.932 102.837 343.452 78.5963 372.465 78.5963C384.005 78.5963 394.676 82.4312 403.344 88.932V29ZM372.866 162.91C389.256 162.91 402.542 149.217 402.542 132.326C402.542 115.434 389.256 101.741 372.866 101.741C356.477 101.741 343.191 115.434 343.191 132.326C343.191 149.217 356.477 162.91 372.866 162.91Z" fill="currentColor"/>
<path d="M463.497 80.248H439.436V140.177C439.436 165.97 459.724 186.88 484.751 186.88C509.778 186.88 530.066 165.97 530.066 140.177V80.248H506.005V140.177C506.005 152.275 496.489 162.082 484.751 162.082C473.013 162.082 463.497 152.275 463.497 140.177V80.248Z" fill="currentColor"/>
<path d="M749.574 78.6607C753.752 78.8703 757.875 79.5927 761.857 80.8011V106.077C757.403 103.324 752.19 101.742 746.618 101.742C731.37 101.742 718.807 113.595 717.132 128.849L716.943 185.229H693.684V80.2499H716.943V88.3481C719.238 86.6967 721.664 85.2315 724.202 83.9701C732.097 80.0468 740.819 78.2215 749.574 78.6607Z" fill="currentColor"/>
<path d="M120.225 124.06V185.229H96.1634V124.06C96.1634 112.647 87.1862 103.395 76.1123 103.395C65.0384 103.395 56.0613 112.647 56.0613 124.06V185.229H32V124.06C32 98.9513 51.7498 78.5967 76.1123 78.5967C88.7528 78.5967 100.151 84.0762 108.194 92.8561C116.237 84.0762 127.635 78.5967 140.276 78.5967C164.638 78.5967 184.388 98.9513 184.388 124.06V185.229H160.327V124.06C160.327 112.647 151.35 103.395 140.276 103.395C129.202 103.395 120.225 112.647 120.225 124.06Z" fill="currentColor"/>
<path d="M252.206 168.279C270.198 168.279 284.784 153.246 284.784 134.703C284.784 116.159 270.198 101.126 252.206 101.126C249.827 101.126 247.507 101.389 245.273 101.888L229.831 83.6992C236.654 80.515 244.229 78.7422 252.206 78.7422C282.193 78.7422 306.503 103.797 306.503 134.703C306.503 165.609 282.193 190.663 252.206 190.663C222.218 190.663 197.908 165.609 197.908 134.703C197.908 126.381 199.671 118.484 202.832 111.386H202.893L219.793 131.292C219.683 132.414 219.627 133.551 219.627 134.703C219.627 153.246 234.213 168.279 252.206 168.279Z" fill="currentColor"/>
<path d="M234.566 111.386H202.893L234.566 148.693H266.24L234.566 111.386Z" fill="#FD007A"/>
<path d="M229.582 83.4053H197.908L229.582 120.712H261.255L229.582 83.4053Z" fill="#0029F5"/>
</svg>
