<svg width="293" height="293" viewBox="0 0 293 293" fill="none" xmlns="http://www.w3.org/2000/svg">
<path d="M148.535 217.8C187.636 217.8 219.333 186.102 219.333 147C219.333 107.898 187.636 76.2 148.535 76.2C143.365 76.2 138.325 76.7541 133.47 77.8062L99.9109 39.4525C114.738 32.7382 131.2 29 148.535 29C213.703 29 266.532 81.8304 266.532 147C266.532 212.17 213.703 265 148.535 265C83.3665 265 30.5371 212.17 30.5371 147C30.5371 129.453 34.367 112.801 41.2364 97.8333H41.3689L78.0969 139.809C77.8583 142.174 77.7362 144.573 77.7362 147C77.7362 186.102 109.434 217.8 148.535 217.8Z" fill="#222222"/>
<path d="M109.842 97.5283H41.3145L109.842 175.847H178.369L109.842 97.5283Z" fill="#FD007A"/>
<path d="M99.0566 38.79H30.5293L99.0566 117.109H167.609L99.0566 38.79Z" fill="#0029F5"/>
</svg>
